<?xml version="1.0" encoding="utf-8"?>
<!-- Generator: Adobe Illustrator 27.3.1, SVG Export Plug-In . SVG Version: 6.00 Build 0)  -->
<svg version="1.1" id="Layer_1" xmlns="http://www.w3.org/2000/svg" xmlns:xlink="http://www.w3.org/1999/xlink" x="0px" y="0px"
	 viewBox="0 0 1080 1080" style="enable-background:new 0 0 1080 1080;" xml:space="preserve">
<style type="text/css">
	.st0{fill:none;}
	.st1{fill:url(#SVGID_1_);}
	.st2{fill:url(#SVGID_00000006683376807348566320000017118925181781211309_);}
	.st3{fill:url(#SVGID_00000002379144113420583850000002744285247546396854_);}
	.st4{fill:url(#SVGID_00000008124375465818402880000016684630037859564445_);}
	.st5{fill:url(#SVGID_00000064316759763007628250000012864283843672320163_);}
</style>
<g>
	<g>
		<g>
			<path class="st0" d="M145.38,877.53c0.08,0.04,0.16,0.09,0.25,0.13c0,0,8.63,4.69,24.41,11.52c-0.69-0.33-1.44-0.66-2.13-0.98
				C159.97,884.78,152.48,881.21,145.38,877.53z"/>
			<path class="st0" d="M463.74,661.33h84.1c3.79,0,7.76-0.73,11.8-2.16c3.95-1.39,7.48-3.75,10.5-7.01l119.53-116.24l5.64-5.49
				c20.7-18.53,37.67-33.87,51.87-46.88c8.47-7.76,10.13-21.83,3.71-31.37c-9.62-14.29-22.34-31.87-27.17-38.5
				c-1.22-1.67-1.96-2.68-1.99-2.73l-79.22-124.76c-2.97-5.47-8.9-8.05-18.22-8.05h-89.07c-7.02,0-8.54,3.43-9.08,6.42
				c-0.27,1.23-0.06,3.44,2.37,7.49l110.52,154.79c10,14,7.96,33.32-4.74,44.92L464.22,647.19c-5.18,4.26-6.3,6.75-6.52,7.86
				c-0.35,2.13-0.13,3.74,0.67,4.69C459.49,661.06,461.9,661.33,463.74,661.33z"/>
			<linearGradient id="SVGID_1_" gradientUnits="userSpaceOnUse" x1="162.2002" y1="993.3184" x2="1074.7711" y2="465.869">
				<stop  offset="0" style="stop-color:#90267F"/>
				<stop  offset="1" style="stop-color:#DB2728"/>
			</linearGradient>
			<path class="st1" d="M601.49,717.98c-2.55-0.71-6.4-1.24-11.55-1.6c-5.15-0.35-10.63-0.53-16.43-0.53
				c-9.68,0-17.63,0.82-23.83,2.46c-6.2,1.64-11.29,4.14-15.25,7.51c-3.96,3.37-6.91,7.57-8.84,12.63
				c-1.94,5.05-3.48,10.94-4.62,17.68c-1.67,9.57-2.2,17.21-1.58,22.92c0.61,5.72,2.46,10.15,5.54,13.29
				c3.08,3.15,7.55,5.23,13.4,6.24c5.85,1.02,13.18,1.53,21.98,1.53c6.25,0,12.43-0.22,18.55-0.67c6.11-0.44,10.41-0.93,12.87-1.46
				l12.94-74.69c0.35-1.95,0.24-3.21-0.33-3.79C603.76,718.94,602.82,718.43,601.49,717.98z"/>
			
				<linearGradient id="SVGID_00000155855377029397924580000011634298389133608321_" gradientUnits="userSpaceOnUse" x1="108.3407" y1="900.1328" x2="1020.9116" y2="372.6836">
				<stop  offset="0" style="stop-color:#90267F"/>
				<stop  offset="1" style="stop-color:#DB2728"/>
			</linearGradient>
			<path style="fill:url(#SVGID_00000155855377029397924580000011634298389133608321_);" d="M433.87,716.12
				c-4.67-2.57-13.07-3.85-25.21-3.85c-8.89,0-16.24,0.64-22.05,1.93c-5.81,1.29-10.61,3.43-14.39,6.44
				c-3.79,3.01-6.64,6.92-8.58,11.7c-1.94,4.78-3.52,10.68-4.75,17.68l-0.66,4.26l48.58-7.31c6.86-0.97,12.36-2.04,16.5-3.19
				c4.13-1.15,7.3-2.44,9.5-3.85c2.2-1.42,3.74-3.06,4.62-4.92c0.88-1.86,1.54-4.07,1.98-6.65
				C440.37,722.77,438.53,718.69,433.87,716.12z"/>
			
				<linearGradient id="SVGID_00000067204364841768364710000011639051658928874677_" gradientUnits="userSpaceOnUse" x1="62.2762" y1="820.434" x2="974.8472" y2="292.9847">
				<stop  offset="0" style="stop-color:#90267F"/>
				<stop  offset="1" style="stop-color:#DB2728"/>
			</linearGradient>
			<path style="fill:url(#SVGID_00000067204364841768364710000011639051658928874677_);" d="M1019.95,371.36
				c-16.98-27.32-35.66-51.4-55.42-72.67c-1.22,1.76-3.11,3.69-5.68,5.81L788.79,459.91c-11.81,10.79-13.7,28.71-4.41,41.73
				L895,656.58c2.29,3.82,3.19,6.88,2.68,9.17c-1.02,5.6-4.84,8.41-11.47,8.41h-89.07c-10.19,0-16.94-3.06-20.26-9.18l-79.13-124.62
				c0,0-0.15-0.2-0.35-0.48l6.03-5.86c20.7-18.53,37.67-33.87,51.87-46.88c10.16-9.32,12.16-26.2,4.46-37.64
				c-9.99-14.83-23.28-33.18-27.68-39.21l117.44-114.2c3.32-3.57,7.14-6.12,11.47-7.64c4.33-1.53,8.54-2.29,12.61-2.29h78.83
				C797.46,131.52,585.05,139.66,585.05,139.66c-205.74,5.93-342.56,102.37-415.48,172.65c17.93-10.43,38.04-18.1,60.38-22.89
				c27.91-5.99,59.19-8.98,93.85-8.98c40.52,0,73.4,3.38,98.63,10.13c25.23,6.75,44.59,15.48,58.1,26.18
				c13.5,10.71,21.98,22.75,25.42,36.13c3.44,13.38,4.01,26.82,1.72,40.33c-2.81,17.33-8.03,32.37-15.67,45.11
				c-7.65,12.75-18.16,23.51-31.54,32.3c-13.38,8.79-29.69,15.99-48.93,21.6c-19.25,5.6-42.12,10.45-68.62,14.53l-126.17,16.74
				c-9.3,1.4-17.45-6.28-16.61-15.65l3.02-33.6c0.6-6.67,5.69-12.06,12.31-13.05l98.78-12.55c19.87-2.81,35.8-5.86,47.78-9.18
				c11.98-3.31,21.15-7.01,27.53-11.09c6.37-4.07,10.83-8.79,13.38-14.14c2.54-5.35,4.46-11.72,5.73-19.11
				c2.8-16.06-2.55-27.77-16.06-35.17c-13.51-7.39-37.84-11.08-73.02-11.08c-25.74,0-47.02,1.85-63.84,5.54
				c-16.82,3.7-30.71,9.88-41.67,18.54c-10.96,8.67-19.24,19.88-24.85,33.64c-1.26,3.08-2.45,6.35-3.61,9.75
				c-0.03,0.08-0.06,0.15-0.08,0.23c-0.6,2.09-5.58,19.5-10.23,41.89c-6.55,31.48-12.45,72.75-4.62,94.95
				c0.31,0.89,0.64,1.69,0.97,2.49c4.81,14.28,13.53,24.47,26.37,30.37c18.86,8.67,49.18,13,90.98,13c14.27,0,29.18-0.32,44.73-0.96
				c15.54-0.63,30.39-1.46,44.53-2.48c14.15-1.02,26.31-1.85,36.51-2.49c10.19-0.63,16.94-0.95,20.26-0.95
				c6.63,0,9.43,3.32,8.41,9.94l-4.59,34.4c-0.76,9.94-4.46,17.27-11.08,21.99c-6.63,4.72-15.55,7.71-26.76,8.98
				c-15.04,1.53-34.28,2.62-57.72,3.25c-23.45,0.64-50.21,0.95-80.28,0.95c-44.35,0-80.09-4.71-107.23-14.14
				c-27.14-9.43-47.59-22.68-61.35-39.75c-13.76-17.07-21.92-37.85-24.47-62.31c-2.55-24.47-1.28-52.12,3.82-82.96
				c3.45-20.04,8.02-38.29,13.69-54.77c-64.65,117.5-81,209.07-73.73,279.1c0.45,3.72,1,7.43,1.61,11.14
				c5.5,30.29,19.72,73.05,55.77,112.79l2.59-19.12l12.98-95.98c1.06-6.29,5.59-10.14,13.6-11.56c8.45-1.42,17.21-2.62,26.27-3.59
				c9.07-0.97,19.1-1.46,30.1-1.46c7.66,0,14.72,0.6,21.19,1.79c6.47,1.2,11.73,2.77,15.77,4.72c5.72-1.42,12.58-2.86,20.59-4.32
				c8.01-1.46,16.46-2.2,25.35-2.2c41.9,0,60.16,15.64,54.79,46.92l-14.92,85.72c-0.35,1.95-1.93,2.92-4.75,2.92h-25.61
				c-2.73,0-3.92-0.97-3.56-2.92l14.12-81.47c1.67-9.57,0.77-16.17-2.71-19.81c-3.48-3.63-10.54-5.45-21.19-5.45
				c-8.71,0-16.5,0.75-23.37,2.26c-2.37,0.44-3.74,1.86-4.09,4.26l-17.43,100.21c-0.35,1.95-1.94,2.92-4.75,2.92h-26.53
				c-2.2,0-3.12-0.97-2.77-2.92l14.65-84.26c1.41-8.24,0.61-14.04-2.37-17.41c-2.99-3.37-10.82-5.05-23.5-5.05
				c-10.04,0-17.6,0.75-22.71,2.26c-2.9,0-4.57,1.42-5.02,4.26l-13.71,104.64l-2.96,22.62c12.82,10.12,27.46,19.75,44.21,28.57
				c7.1,3.68,14.59,7.25,22.53,10.68c0.68,0.33,1.43,0.65,2.13,0.98c34.78,15.05,104.38,40.48,193.35,49.05
				c4.77,0.32,9.54,0.65,14.31,0.91c61.15,3.32,118.71-0.09,171.91-7.84l10.6-1.61c81.19-12.84,151.86-35.63,209.15-59.63
				c0.2-0.08,6.03-2.46,15.75-6.78c16.63-7.33,31.99-14.69,46.02-21.85c11.54-5.83,24.03-12.43,36.84-19.64l-0.13,0.01
				c-6.26,0.75-12.86,1.32-19.86,1.7c-1.05,0.05-2.09,0.1-3.14,0.14l-0.34,0.03l0.01-0.01c-8.91,0.41-17.76,0.63-26.57,0.63
				c-15.05,0-26.89-1.19-35.51-3.58c-8.63-2.39-15.03-5.52-19.21-9.37c-4.18-3.85-6.58-8.12-7.2-12.82
				c-0.61-4.69-0.44-9.44,0.53-14.22c2.2-11.43,8.23-19.89,18.09-25.38c9.85-5.49,23.67-9.7,41.45-12.63
				c7.83-1.06,14.61-1.99,20.33-2.79c5.72-0.8,10.5-1.53,14.32-2.19c3.83-0.67,6.95-1.27,9.37-1.79c2.42-0.53,4.44-1.06,6.07-1.6
				c1.63-0.53,2.82-1.13,3.56-1.79c0.75-0.66,1.3-1.93,1.65-3.79c1.23-6.64-0.39-11.36-4.88-14.15c-4.49-2.79-13.25-4.18-26.27-4.18
				c-17.16,0-30.03,0.59-38.62,1.79c-8.58,1.2-14.41,1.79-17.49,1.79c-1.85,0-2.59-0.93-2.24-2.79l1.85-11.69
				c0.35-3.46,1.67-5.92,3.96-7.38c2.29-1.46,5.15-2.46,8.58-2.99c4.84-0.53,11.37-1.06,19.6-1.6c8.23-0.53,18.33-0.8,30.3-0.8
				c23.15,0,39.32,3.66,48.52,10.97c9.2,7.31,12.12,19.65,8.78,37.01l-12.74,66.08l-0.89,4.62c31.12-18.88,62.12-40.91,84.49-64.32
				c0,0-0.01-0.01-0.02-0.02C1153.63,573.78,1019.95,371.36,1019.95,371.36z M457.7,655.05c0.22-1.11,1.35-3.6,6.52-7.86
				l170.06-155.41c12.7-11.61,14.74-30.92,4.74-44.92L528.51,292.08c-2.43-4.06-2.65-6.26-2.37-7.49c0.54-2.99,2.06-6.42,9.08-6.42
				h89.07c9.32,0,15.25,2.59,18.22,8.05l79.22,124.76c0.03,0.05,0.77,1.06,1.99,2.73c4.83,6.64,17.55,24.21,27.17,38.5
				c6.42,9.53,4.76,23.6-3.71,31.37c-14.2,13.01-31.17,28.35-51.87,46.88l-5.64,5.49L570.15,652.17c-3.02,3.26-6.56,5.62-10.5,7.01
				c-4.04,1.43-8.01,2.16-11.8,2.16h-84.1c-1.83,0-4.25-0.28-5.37-1.59C457.57,658.79,457.34,657.19,457.7,655.05z M473.6,727.68
				c-0.97,6.02-2.77,11.25-5.41,15.68c-2.64,4.43-6.27,8.17-10.89,11.23c-4.62,3.06-10.26,5.56-16.9,7.51
				c-6.64,1.95-14.55,3.63-23.69,5.05l-60.6,9.17c0.53,9.31,4.05,15.46,10.56,18.47c6.51,3.01,16.99,4.52,31.42,4.52
				c4.93,0,10.07-0.11,15.45-0.33c5.36-0.22,10.49-0.51,15.38-0.86c4.88-0.35,9.09-0.64,12.61-0.86c3.52-0.22,5.86-0.34,7-0.34
				c2.29,0,3.25,1.15,2.9,3.46l-1.59,11.96c-0.26,3.46-1.54,6-3.83,7.64c-2.29,1.64-5.37,2.68-9.24,3.12
				c-5.19,0.53-11.84,0.91-19.94,1.13c-8.1,0.22-17.34,0.34-27.73,0.34c-15.31,0-27.65-1.64-37.03-4.92
				c-9.37-3.28-16.44-7.89-21.18-13.82c-4.75-5.94-7.57-13.16-8.45-21.67c-0.88-8.5-0.44-18.11,1.32-28.84
				c2.2-12.85,5.7-23.59,10.5-32.23c4.8-8.64,10.82-15.53,18.09-20.67c7.26-5.14,15.71-8.75,25.35-10.83
				c9.64-2.08,20.44-3.12,32.41-3.12c13.99,0,25.35,1.17,34.06,3.52c8.71,2.35,15.4,5.39,20.07,9.1c4.66,3.72,7.59,7.91,8.78,12.56
				C474.19,718.31,474.39,722.99,473.6,727.68z M650.34,648.07l-27.99,161.48c-1.06,6.12-5.33,9.83-12.8,11.17
				c-8.8,1.24-17.25,2.26-25.35,3.06c-8.1,0.8-18.13,1.2-30.1,1.2c-16.64,0-29.86-1.57-39.67-4.72
				c-9.82-3.14-17.01-7.69-21.59-13.62c-4.57-5.93-7.06-13.16-7.46-21.66c-0.4-8.5,0.33-18.03,2.18-28.57
				c2.29-13.47,6.32-24.45,12.08-32.96c5.77-8.5,12.57-15.21,20.4-20.13c7.84-4.92,16.53-8.24,26.07-9.97
				c9.55-1.73,19.3-2.59,29.24-2.59c8.01,0,15.09,0.11,21.25,0.33c6.16,0.22,10.65,0.56,13.47,1l9.37-54.09
				c0.44-2.13,1.8-3.19,4.09-3.19h14.52C647.74,634.79,651.83,639.22,650.34,648.07z M722,697.25l-21.91,124.66
				c-0.36,1.95-1.63,2.92-3.83,2.92h-26.14c-2.2,0-3.12-0.97-2.77-2.92l20.2-114.83c1.49-8.51,7.17-12.76,17.03-12.76h14.65
				C721.43,694.33,722.35,695.3,722,697.25z M733.35,652.59c-2.03,11.16-9.46,16.74-22.31,16.74c-12.94,0-18.44-5.58-16.5-16.74
				c2.11-11.61,9.64-17.41,22.57-17.41C729.97,635.18,735.38,640.99,733.35,652.59z"/>
			
				<linearGradient id="SVGID_00000050629123675079216470000000845296188716162984_" gradientUnits="userSpaceOnUse" x1="239.1084" y1="1126.3817" x2="1151.6793" y2="598.9324">
				<stop  offset="0" style="stop-color:#90267F"/>
				<stop  offset="1" style="stop-color:#DB2728"/>
			</linearGradient>
			<path style="fill:url(#SVGID_00000050629123675079216470000000845296188716162984_);" d="M789.83,784.3
				c-1.32,6.64,1.25,11.1,7.72,13.35c6.47,2.26,15.55,3.39,27.26,3.39c6.25,0,12.72-0.27,19.41-0.8c6.69-0.53,11.44-1.06,14.26-1.6
				l7.53-38.28l-57.16,9.17C797.66,771.41,791.32,776.32,789.83,784.3z"/>
			
				<linearGradient id="SVGID_00000119809577647894890320000015586451208156357034_" gradientUnits="userSpaceOnUse" x1="153.8849" y1="978.9317" x2="1066.4559" y2="451.4824">
				<stop  offset="0" style="stop-color:#90267F"/>
				<stop  offset="1" style="stop-color:#DB2728"/>
			</linearGradient>
			<path style="fill:url(#SVGID_00000119809577647894890320000015586451208156357034_);" d="M273.77,925.06
				c19.22,4.38,40.7,8.28,64.39,11.16c8.4,0.81,16.82,1.44,25.24,2.01c-88.97-8.56-158.57-33.99-193.35-49.05
				C197.05,901.87,231.73,915.12,273.77,925.06z"/>
		</g>
	</g>
</g>
</svg>
